<?xml version="1.0" encoding="utf-8"?>
<!-- Generator: Adobe Illustrator 19.2.1, SVG Export Plug-In . SVG Version: 6.00 Build 0)  -->
<svg version="1.1" id="Layer_1" xmlns="http://www.w3.org/2000/svg" xmlns:xlink="http://www.w3.org/1999/xlink" x="0px" y="0px"
	 viewBox="0 0 254.5 50" style="enable-background:new 0 0 254.5 50;" xml:space="preserve">
<style type="text/css">
	.st0{fill:#fff;}
</style>
<path class="st0" d="M67,11L78,0v0H48v0l-9,9l-9-9v0H0v0l11,11h14l6,6l-8,8l8,8l-6,6H11L0,50v0h30v0l9-9l9,9v0h30v0L67,39H53l-6-6
	l8-8l-8-8l6-6H67z M52.2,25l-23,23H4.8l7-7h14l0.6-0.6l14-14l1.4-1.4l-1.4-1.4l-14-14L25.8,9h-14l-7-7h24.3L52.2,25z"/>
<g class="st0">
	<path  d="M85.7,32l4.2-3c1.3,1.5,2.9,2.3,4.7,2.3c1.2,0,2.2-0.4,3.1-1.1s1.5-1.6,1.8-2.8h-6.9v-4.1h6.8c-0.4-1.1-1-1.9-1.8-2.5
		c-0.8-0.6-1.8-1-3-1c-1.8,0-3.3,0.7-4.6,2.1l-3.9-3.3c2.1-2.6,5-4,8.4-4c1.6,0,3,0.3,4.4,0.8s2.6,1.3,3.5,2.3s1.7,2.1,2.3,3.5
		c0.6,1.3,0.8,2.8,0.8,4.3c0,2.1-0.5,3.9-1.5,5.6c-1,1.7-2.3,3-3.9,3.9c-1.7,0.9-3.5,1.4-5.4,1.4c-2.1,0-3.9-0.4-5.3-1.1
		S86.7,33.4,85.7,32z"/>
	<path d="M108.6,36V15h5.8v8.5l7.2-8.5h6.9l-8,9l8.2,12h-7l-5.3-7.8l-2.1,2.4V36H108.6z"/>
	<path d="M128.3,25.5c0-1.5,0.3-2.9,0.8-4.3c0.6-1.3,1.3-2.5,2.3-3.5c1-1,2.1-1.7,3.5-2.3c1.4-0.6,2.8-0.9,4.4-0.9
		c3.7,0,6.7,1.5,8.8,4.4l-4.3,3.3c-1.3-1.6-2.8-2.5-4.6-2.5c-1.5,0-2.7,0.5-3.6,1.6s-1.4,2.4-1.4,4c0,1.6,0.5,3,1.4,4
		c0.9,1.1,2.1,1.6,3.6,1.6c1,0,1.9-0.2,2.6-0.6c0.7-0.4,1.4-1.1,2.1-1.9l4.4,3.1c-0.7,1-1.5,1.8-2.3,2.4s-1.8,1.2-3,1.6
		c-1.2,0.4-2.6,0.6-4,0.6c-2,0-3.8-0.5-5.4-1.4c-1.6-0.9-2.9-2.2-3.9-3.9C128.8,29.4,128.3,27.6,128.3,25.5z"/>
	<path d="M150.9,36V15h18.8v21h-5.8V20.1h-7.2V36H150.9z"/>
	<path d="M173.4,36V15h9c2.7,0,4.8,0.7,6.4,2c1.6,1.3,2.4,3.1,2.4,5.4c0,1.6-0.4,3-1.2,4.1c-0.8,1.2-1.9,2-3.2,2.6
		c-1.3,0.6-2.9,0.8-4.7,0.8h-2.9v6H173.4z M179.2,25.4h2.8c1,0,1.8-0.3,2.4-0.8s0.9-1.2,0.9-2.1c0-0.9-0.3-1.6-0.9-2.1
		c-0.6-0.5-1.4-0.7-2.5-0.7h-2.7V25.4z"/>
	<path d="M193.6,36V15h16.9v5h-11.1v3.2h10.1v4.6h-10.1V31h11.3v5H193.6z"/>
	<path d="M212.9,25.5c0-1.5,0.3-2.9,0.8-4.3c0.6-1.3,1.3-2.5,2.3-3.5c1-1,2.1-1.7,3.5-2.3c1.4-0.6,2.8-0.9,4.4-0.9
		c3.7,0,6.7,1.5,8.8,4.4l-4.3,3.3c-1.3-1.6-2.8-2.5-4.6-2.5c-1.5,0-2.7,0.5-3.6,1.6s-1.4,2.4-1.4,4c0,1.6,0.5,3,1.4,4
		c0.9,1.1,2.1,1.6,3.6,1.6c1,0,1.9-0.2,2.6-0.6c0.7-0.4,1.4-1.1,2.1-1.9l4.4,3.1c-0.7,1-1.5,1.8-2.3,2.4s-1.8,1.2-3,1.6
		c-1.2,0.4-2.6,0.6-4,0.6c-2,0-3.8-0.5-5.4-1.4c-1.6-0.9-2.9-2.2-3.9-3.9C213.4,29.4,212.9,27.6,212.9,25.5z"/>
	<path d="M233.9,25.5c0-1.5,0.3-2.9,0.8-4.3c0.6-1.3,1.3-2.5,2.3-3.5c1-1,2.1-1.7,3.5-2.3c1.4-0.6,2.8-0.9,4.4-0.9
		c3.7,0,6.7,1.5,8.8,4.4l-4.3,3.3c-1.3-1.6-2.8-2.5-4.6-2.5c-1.5,0-2.7,0.5-3.6,1.6s-1.4,2.4-1.4,4c0,1.6,0.5,3,1.4,4
		c0.9,1.1,2.1,1.6,3.6,1.6c1,0,1.9-0.2,2.6-0.6c0.7-0.4,1.4-1.1,2.1-1.9l4.4,3.1c-0.7,1-1.5,1.8-2.3,2.4s-1.8,1.2-3,1.6
		c-1.2,0.4-2.6,0.6-4,0.6c-2,0-3.8-0.5-5.4-1.4c-1.6-0.9-2.9-2.2-3.9-3.9C234.4,29.4,233.9,27.6,233.9,25.5z"/>
</g>
</svg>
